# Blender v3.5.1 OBJ File: ''
# www.blender.org
mtllib ground2.mtl
o Cube
v -1.000000 1.000000 1.000000
v -1.000000 -1.000000 1.000000
v -1.000000 1.000000 -1.000000
v -1.000000 -1.000000 -1.000000
v 1.000000 1.000000 1.000000
v 1.000000 -1.000000 1.000000
v 1.000000 1.000000 -1.000000
v 1.000000 -1.000000 -1.000000
v -1.000000 0.326200 1.000000
v 1.000000 0.326200 -1.000000
v -1.000000 0.326200 -1.000000
v 1.000000 0.326200 1.000000
vt 0.001001 0.588218
vt 0.332332 0.680760
vt 0.332332 0.588218
vt 0.001001 0.681507
vt 0.332332 0.774049
vt 0.332332 0.681507
vt 0.334334 0.588218
vt 0.665666 0.680760
vt 0.665666 0.588218
vt 0.334334 0.077882
vt 0.665666 0.172286
vt 0.665666 0.077882
vt 0.001001 0.774796
vt 0.332332 0.867338
vt 0.332332 0.774796
vt 0.667668 0.588218
vt 0.998999 0.680760
vt 0.998999 0.588218
vt 0.667668 0.077882
vt 0.998999 0.172286
vt 0.998999 0.077882
vt 0.334334 0.173048
vt 0.665666 0.267453
vt 0.665666 0.173048
vt 0.667668 0.173048
vt 0.998999 0.267453
vt 0.998999 0.173048
vt 0.001001 0.268215
vt 0.332332 0.362619
vt 0.332332 0.268215
vt 0.001001 0.680760
vt 0.001001 0.774049
vt 0.334334 0.680760
vt 0.334334 0.172286
vt 0.001001 0.867338
vt 0.667668 0.680760
vt 0.667668 0.172286
vt 0.334334 0.267453
vt 0.667668 0.267453
vt 0.001001 0.362619
vn 0.0000 1.0000 0.0000
vn 0.0000 0.0000 -1.0000
vn 1.0000 0.0000 0.0000
vn 0.0000 -1.0000 0.0000
vn -1.0000 0.0000 0.0000
vn 0.0000 0.0000 1.0000
usemtl Material
s off
f 5/1/1 3/2/1 1/3/1
f 3/4/2 10/5/2 11/6/2
f 7/7/3 12/8/3 10/9/3
f 2/10/4 8/11/4 6/12/4
f 1/13/5 11/14/5 9/15/5
f 5/16/6 9/17/6 12/18/6
f 12/19/6 2/20/6 6/21/6
f 9/22/5 4/23/5 2/24/5
f 10/25/3 6/26/3 8/27/3
f 11/28/2 8/29/2 4/30/2
f 5/1/1 7/31/1 3/2/1
f 3/4/2 7/32/2 10/5/2
f 7/7/3 5/33/3 12/8/3
f 2/10/4 4/34/4 8/11/4
f 1/13/5 3/35/5 11/14/5
f 5/16/6 1/36/6 9/17/6
f 12/19/6 9/37/6 2/20/6
f 9/22/5 11/38/5 4/23/5
f 10/25/3 12/39/3 6/26/3
f 11/28/2 10/40/2 8/29/2
