# Blender v3.5.1 OBJ File: ''
# www.blender.org
mtllib ProtrudingObject.mtl
o ICO球
v 0.000000 -1.000000 0.000000
v -0.723607 -0.447220 -0.525725
v 0.276388 -0.447220 -0.850649
v 0.894426 -0.447216 0.000000
v 0.276388 -0.447220 0.850649
v -0.723607 -0.447220 0.525725
v -0.276388 0.447220 -0.850649
v 0.723607 0.447220 -0.525725
v 0.723607 0.447220 0.525725
v -0.276388 0.447220 0.850649
v -0.894426 0.447216 0.000000
v 0.000000 1.000000 0.000000
v 0.162456 -0.850654 -0.499995
v -0.425323 -0.850654 -0.309011
v -0.262869 -0.525738 -0.809012
v -0.850648 -0.525736 0.000000
v -0.425323 -0.850654 0.309011
v 0.525730 -0.850652 0.000000
v 0.688189 -0.525736 -0.499997
v 0.162456 -0.850654 0.499995
v 0.688189 -0.525736 0.499997
v -0.262869 -0.525738 0.809012
v -0.951058 0.000000 -0.309013
v -0.951058 0.000000 0.309013
v 0.000000 0.000000 -1.000000
v -0.587786 0.000000 -0.809017
v 0.951058 0.000000 -0.309013
v 0.587786 0.000000 -0.809017
v 0.587786 0.000000 0.809017
v 0.951058 0.000000 0.309013
v -0.587786 0.000000 0.809017
v 0.000000 0.000000 3.364773
v -0.688189 0.525736 -0.499997
v 0.262869 0.525738 -0.809012
v 0.850648 0.525736 0.000000
v 0.262869 0.525738 0.809012
v -0.688189 0.525736 0.499997
v -0.162456 0.850654 -0.499995
v -0.525730 0.850652 0.000000
v 0.425323 0.850654 -0.309011
v 0.425323 0.850654 0.309011
v -0.162456 0.850654 0.499995
vt 0.181819 0.039134
vt 0.227273 0.085954
vt 0.136365 0.085954
vt 0.272728 0.132774
vt 0.318182 0.085954
vt 0.363637 0.132774
vt 0.909091 0.039134
vt 0.954545 0.085954
vt 0.863636 0.085954
vt 0.727273 0.039134
vt 0.772727 0.085954
vt 0.681818 0.085954
vt 0.545455 0.039134
vt 0.590909 0.085954
vt 0.500000 0.085954
vt 0.318182 0.179593
vt 0.090910 0.132774
vt 0.181819 0.132774
vt 0.136365 0.179593
vt 0.818182 0.132774
vt 0.909091 0.132774
vt 0.863636 0.179593
vt 0.636364 0.132774
vt 0.727273 0.132774
vt 0.681818 0.179593
vt 0.454546 0.132774
vt 0.545455 0.132774
vt 0.500000 0.179593
vt 0.227273 0.179593
vt 0.045455 0.179593
vt 0.772727 0.179593
vt 0.534051 0.749636
vt 0.579506 0.828366
vt 0.488597 0.828366
vt 0.409092 0.179593
vt 0.181819 0.226412
vt 0.272728 0.226412
vt 0.227273 0.273232
vt 0.000000 0.226412
vt 0.090910 0.226412
vt 0.045455 0.273232
vt 0.727273 0.226412
vt 0.818182 0.226412
vt 0.772727 0.273232
vt 0.545455 0.226412
vt 0.636364 0.226412
vt 0.590909 0.273232
vt 0.363637 0.226412
vt 0.454546 0.226412
vt 0.409092 0.273232
vt 0.500000 0.273232
vt 0.454546 0.320052
vt 0.681818 0.273232
vt 0.636364 0.320052
vt 0.863636 0.273232
vt 0.818182 0.320052
vt 0.909091 0.226412
vt 0.136365 0.273232
vt 0.090910 0.320052
vt 0.318182 0.273232
vt 0.272728 0.320052
vt 0.534051 0.907096
vt 0.443142 0.907096
vt 0.397688 0.828366
vt 0.443142 0.749636
vt 0.954545 0.179593
vt 1.000000 0.132774
vt 0.409092 0.085954
vt 0.363637 0.039134
vn -0.1024 -0.9435 -0.3151
vn -0.7002 -0.6617 -0.2680
vn 0.2680 -0.9435 -0.1947
vn 0.2680 -0.9435 0.1947
vn -0.1024 -0.9435 0.3151
vn -0.9050 -0.3304 -0.2680
vn -0.0247 -0.3304 -0.9435
vn 0.8897 -0.3304 -0.3151
vn 0.5746 -0.3304 0.7488
vn -0.5346 -0.3304 0.7779
vn -0.8026 -0.1256 -0.5831
vn 0.3066 -0.1256 -0.9435
vn 0.9921 -0.1256 0.0000
vn 0.8142 -0.5495 0.1873
vn -0.8026 -0.1256 0.5831
vn -0.4089 0.6617 -0.6284
vn 0.4713 0.6617 -0.5831
vn 0.7002 0.6617 0.2680
vn -0.0385 0.6617 0.7488
vn -0.7240 0.6617 0.1947
vn -0.2680 0.9435 0.1947
vn -0.4911 0.7947 0.3568
vn -0.4089 0.6617 0.6284
vn 0.1024 0.9435 0.3151
vn 0.1876 0.7947 0.5773
vn 0.4713 0.6617 0.5831
vn 0.3313 0.9435 0.0000
vn 0.6071 0.7947 0.0000
vn 0.7002 0.6617 -0.2680
vn 0.1024 0.9435 -0.3151
vn 0.1876 0.7947 -0.5773
vn -0.0385 0.6617 -0.7488
vn -0.2680 0.9435 -0.1947
vn -0.4911 0.7947 -0.3568
vn -0.7240 0.6617 -0.1947
vn -0.8897 0.3304 0.3151
vn -0.7947 0.1876 0.5773
vn -0.5746 0.3304 0.7488
vn -0.1274 0.9740 0.1873
vn 0.8348 0.5159 0.1920
vn 0.5346 0.3304 0.7779
vn 0.9050 0.3304 0.2680
vn 0.9822 0.1876 0.0000
vn 0.9050 0.3304 -0.2680
vn 0.5346 0.3304 -0.7779
vn 0.3035 0.1876 -0.9342
vn 0.0247 0.3304 -0.9435
vn -0.5746 0.3304 -0.7488
vn -0.7947 0.1876 -0.5773
vn -0.8897 0.3304 -0.3151
vn -0.8142 0.5495 0.1873
vn -0.8348 -0.5159 0.1920
vn 0.1274 -0.9740 0.1873
vn 0.8026 0.1256 0.5831
vn 0.7947 -0.1876 0.5773
vn 0.8897 -0.3304 0.3151
vn 0.8026 0.1256 -0.5831
vn 0.7947 -0.1876 -0.5773
vn 0.5746 -0.3304 -0.7488
vn -0.3066 0.1256 -0.9435
vn -0.3035 -0.1876 -0.9342
vn -0.5346 -0.3304 -0.7779
vn -0.9921 0.1256 0.0000
vn -0.9822 -0.1876 0.0000
vn -0.9050 -0.3304 0.2680
vn -0.4713 -0.6617 0.5831
vn -0.1876 -0.7947 0.5773
vn 0.0385 -0.6617 0.7488
vn 0.4089 -0.6617 0.6284
vn 0.4911 -0.7947 0.3568
vn 0.7240 -0.6617 0.1947
vn 0.7240 -0.6617 -0.1947
vn 0.4911 -0.7947 -0.3568
vn 0.4089 -0.6617 -0.6284
vn -0.7002 -0.6617 0.2680
vn -0.6071 -0.7947 0.0000
vn -0.3313 -0.9435 0.0000
vn 0.0385 -0.6617 -0.7488
vn -0.1876 -0.7947 -0.5773
vn -0.4713 -0.6617 -0.5831
usemtl マテリアル
s off
f 1/1/1 14/2/1 13/3/1
f 2/4/2 14/5/2 16/6/2
f 1/7/3 13/8/3 18/9/3
f 1/10/4 18/11/4 20/12/4
f 1/13/5 20/14/5 17/15/5
f 2/4/6 16/6/6 23/16/6
f 3/17/7 15/18/7 25/19/7
f 4/20/8 19/21/8 27/22/8
f 5/23/9 21/24/9 29/25/9
f 6/26/10 22/27/10 31/28/10
f 2/4/11 23/16/11 26/29/11
f 3/17/12 25/19/12 28/30/12
f 4/20/13 27/22/13 30/31/13
f 5/32/14 29/33/14 32/34/14
f 6/26/15 31/28/15 24/35/15
f 7/36/16 33/37/16 38/38/16
f 8/39/17 34/40/17 40/41/17
f 9/42/18 35/43/18 41/44/18
f 10/45/19 36/46/19 42/47/19
f 11/48/20 37/49/20 39/50/20
f 39/50/21 42/51/21 12/52/21
f 39/50/22 37/49/22 42/51/22
f 37/49/23 10/45/23 42/51/23
f 42/47/24 41/53/24 12/54/24
f 42/47/25 36/46/25 41/53/25
f 36/46/26 9/42/26 41/53/26
f 41/44/27 40/55/27 12/56/27
f 41/44/28 35/43/28 40/55/28
f 35/43/29 8/57/29 40/55/29
f 40/41/30 38/58/30 12/59/30
f 40/41/31 34/40/31 38/58/31
f 34/40/32 7/36/32 38/58/32
f 38/38/33 39/60/33 12/61/33
f 38/38/34 33/37/34 39/60/34
f 33/37/35 11/48/35 39/60/35
f 24/35/36 37/49/36 11/48/36
f 24/35/37 31/28/37 37/49/37
f 31/28/38 10/45/38 37/49/38
f 32/34/39 36/62/39 10/63/39
f 32/34/40 29/33/40 36/62/40
f 29/25/41 9/42/41 36/46/41
f 30/31/42 35/43/42 9/42/42
f 30/31/43 27/22/43 35/43/43
f 27/22/44 8/57/44 35/43/44
f 28/30/45 34/40/45 8/39/45
f 28/30/46 25/19/46 34/40/46
f 25/19/47 7/36/47 34/40/47
f 26/29/48 33/37/48 7/36/48
f 26/29/49 23/16/49 33/37/49
f 23/16/50 11/48/50 33/37/50
f 31/64/51 32/34/51 10/63/51
f 31/64/52 22/65/52 32/34/52
f 22/65/53 5/32/53 32/34/53
f 29/25/54 30/31/54 9/42/54
f 29/25/55 21/24/55 30/31/55
f 21/24/56 4/20/56 30/31/56
f 27/22/57 28/66/57 8/57/57
f 27/22/58 19/21/58 28/66/58
f 19/21/59 3/67/59 28/66/59
f 25/19/60 26/29/60 7/36/60
f 25/19/61 15/18/61 26/29/61
f 15/18/62 2/4/62 26/29/62
f 23/16/63 24/35/63 11/48/63
f 23/16/64 16/6/64 24/35/64
f 16/6/65 6/26/65 24/35/65
f 17/15/66 22/27/66 6/26/66
f 17/15/67 20/14/67 22/27/67
f 20/14/68 5/23/68 22/27/68
f 20/12/69 21/24/69 5/23/69
f 20/12/70 18/11/70 21/24/70
f 18/11/71 4/20/71 21/24/71
f 18/9/72 19/21/72 4/20/72
f 18/9/73 13/8/73 19/21/73
f 13/8/74 3/67/74 19/21/74
f 16/6/75 17/68/75 6/26/75
f 16/6/76 14/5/76 17/68/76
f 14/5/77 1/69/77 17/68/77
f 13/3/78 15/18/78 3/17/78
f 13/3/79 14/2/79 15/18/79
f 14/2/80 2/4/80 15/18/80
