# Blender v3.5.1 OBJ File: 'boat.blend'
# www.blender.org
mtllib boat.mtl
o 船本体_Cube
v 0.000000 1.195407 6.645369
v 0.000000 0.836785 4.651758
v 0.000000 -0.716288 0.934077
v 0.000000 -1.023269 1.334396
v -1.683121 0.836785 -3.137724
v -2.404459 1.195407 -4.482463
v -1.291931 -1.023269 -4.482358
v -0.904352 -0.716288 -3.137650
v 2.404459 1.195407 -4.482463
v 1.683121 0.836785 -3.137724
v 0.904352 -0.716288 -3.137650
v 1.291931 -1.023269 -4.482358
v 0.265176 -0.716288 0.703076
v 0.378822 -1.023269 1.004394
v -0.705040 1.195407 5.988931
v -0.493528 0.836785 4.192252
v 0.705040 1.195407 5.988931
v 0.493528 0.836785 4.192252
v -0.265176 -0.716288 0.703076
v -0.378822 -1.023269 1.004394
v 0.000000 1.195407 -4.482463
v 0.000000 0.836785 -3.137724
v 0.000000 -1.023269 -4.482358
v 0.000000 -0.716288 -3.137650
v 0.000000 -1.023269 1.004394
v 0.000000 -0.716288 0.703076
v 1.146099 -0.716288 -1.917165
v 0.000000 1.195407 5.988931
v -2.133047 0.836785 -1.019913
v 1.637285 -1.023269 -2.738807
v 2.133047 0.836785 -1.019913
v -3.047210 1.195407 -1.457018
v 3.047210 1.195407 -1.457018
v -1.146099 -0.716288 -1.917165
v -1.637285 -1.023269 -2.738807
v 0.000000 -0.716288 -1.917165
v 0.000000 -1.023269 -2.738807
v 1.924713 0.836785 1.586169
v -1.034161 -0.716288 -0.607044
v 1.034161 -0.716288 -0.607044
v 2.749590 1.195407 2.265956
v -1.477372 -1.023269 -0.867206
v -1.924713 0.836785 1.586169
v 1.477372 -1.023269 -0.867206
v 0.000000 -0.716288 -0.607045
v -2.749590 1.195407 2.265956
v 1.154661 -0.716288 -1.262105
v 0.000000 -1.023269 -0.867207
v -2.148982 0.836785 0.283128
v 0.000000 -0.716288 -1.262105
v 2.148982 0.836785 0.283128
v 1.649516 -1.023269 -1.803007
v -3.069973 1.195407 0.404469
v -1.154661 -0.716288 -1.262105
v 0.000000 -1.023269 -1.803007
v 1.427487 0.836785 2.889210
v -0.766998 -0.716288 0.048016
v 3.069973 1.195407 0.404469
v 0.766998 -0.716288 0.048016
v -1.649516 -1.023269 -1.803007
v -1.427487 0.836785 2.889210
v 2.039267 1.195407 4.127443
v 0.000000 -0.716288 0.048016
v -1.095711 -1.023269 0.068594
v 0.000000 -0.387949 2.053591
v 1.355655 -0.387949 -3.137193
v 1.095711 -1.023269 0.068594
v -2.039267 1.195407 4.127443
v -1.355655 -0.387949 -3.137193
v 0.000000 -1.023269 0.068594
v -0.397508 -0.387949 1.754043
v 0.397508 -0.387949 1.754043
v 0.000000 -0.387949 -3.137193
v 0.000000 -0.554212 2.933702
v 1.718044 -0.387949 -1.643725
v 1.936650 -0.554212 -4.481704
v -1.718044 -0.387949 -1.643725
v -1.936650 -0.554212 -4.481704
v -0.567868 -0.554212 2.505775
v -1.550243 -0.387949 0.055159
v 1.550243 -0.387949 0.055159
v 0.567868 -0.554212 2.505775
v 1.730878 -0.387949 -0.794283
v 0.000000 -0.554212 -4.481704
v 2.454348 -0.554212 -2.348179
v -1.730878 -0.387949 -0.794283
v -2.454348 -0.554212 -2.348179
v -1.149757 -0.387949 0.904601
v 1.149757 -0.387949 0.904601
v -2.214633 -0.554212 0.078798
v 1.629169 0.224418 -3.137592
v 2.214633 -0.554212 0.078798
v 0.000000 0.224418 3.811105
v 2.472683 -0.554212 -1.134691
v -1.629169 0.224418 -3.137592
v -2.472683 -0.554212 -1.134691
v -1.642510 -0.554212 1.292286
v -0.477708 0.224418 3.404155
v 1.642510 -0.554212 1.292286
v 0.477708 0.224418 3.404155
v 0.000000 0.224418 -3.137592
v 2.327384 0.320597 -4.482275
v 2.064672 0.224418 -1.211859
v 0.000000 0.320597 5.444436
v -2.064672 0.224418 -1.211859
v -2.327384 0.320597 -4.482275
v -1.863017 0.224418 1.096148
v -0.682440 0.320597 4.863080
v 0.682440 0.320597 4.863080
v 1.863017 0.224418 1.096148
v 0.000000 0.320597 -4.482275
v 2.080096 0.224418 -0.057855
v 2.949532 0.320597 -1.731227
v -2.080096 0.224418 -0.057855
v -1.381729 0.224418 2.250152
v -2.949532 0.320597 -1.731227
v -2.661453 0.320597 1.565926
v 1.381729 0.224418 2.250152
v 2.661453 0.320597 1.565926
v 2.971566 0.320597 -0.082651
v -2.971566 0.320597 -0.082651
v -1.973899 0.320597 3.214502
v 1.973899 0.320597 3.214502
v 2.040184 1.195407 -1.457018
v 1.683121 1.195407 -3.137724
v 0.000000 1.195407 -3.137724
v -2.040184 1.195407 -1.457018
v -1.683121 1.195407 -3.137724
v -2.148982 1.195407 0.283128
v -2.128098 1.195407 0.404469
v -2.133047 1.195407 -1.019913
v 2.128098 1.195407 0.404469
v 2.148982 1.195407 0.283128
v 2.133047 1.195407 -1.019913
v 0.539980 1.195407 4.127443
v 1.665314 1.195407 2.265956
v 1.427487 1.195407 2.889210
v -0.539980 1.195407 4.127443
v -1.665314 1.195407 2.265956
v -1.427487 1.195407 2.889210
v 1.924713 1.195407 1.586169
v -1.924713 1.195407 1.586169
v 0.000000 1.195407 4.651758
v -0.493528 1.195407 4.192252
v 0.493528 1.195407 4.192252
vt 0.829000 0.722220
vt 0.833691 0.687500
vt 0.875000 0.750000
vt 0.625000 0.875000
vt 0.562500 1.000000
vt 0.562500 0.875000
vt 0.625000 0.125000
vt 0.562500 0.250000
vt 0.562500 0.125000
vt 0.250000 0.687500
vt 0.375000 0.750000
vt 0.250000 0.750000
vt 0.562500 0.687500
vt 0.625000 0.750000
vt 0.562500 0.750000
vt 0.562500 0.500000
vt 0.625000 0.625000
vt 0.562500 0.625000
vt 0.375000 0.500000
vt 0.375000 0.625000
vt 0.250000 0.625000
vt 0.625000 0.109375
vt 0.562500 0.109375
vt 0.875000 0.500000
vt 0.875000 0.625000
vt 0.750000 0.625000
vt 0.750000 0.500000
vt 0.250000 0.500000
vt 0.125000 0.625000
vt 0.125000 0.750000
vt 0.125000 0.687500
vt 0.666309 0.687500
vt 0.671000 0.722220
vt 0.662459 0.672893
vt 0.662650 0.683831
vt 0.625000 0.671875
vt 0.250000 0.671875
vt 0.125000 0.671875
vt 0.625000 0.000000
vt 0.562500 0.062500
vt 0.562500 0.000000
vt 0.562500 0.671875
vt 0.625000 0.687500
vt 0.375000 0.687500
vt 0.875000 0.687500
vt 0.837350 0.683831
vt 0.875000 0.640625
vt 0.825707 0.656250
vt 0.822135 0.651019
vt 0.375000 0.640625
vt 0.250000 0.656250
vt 0.250000 0.640625
vt 0.562500 0.640625
vt 0.625000 0.656250
vt 0.562500 0.656250
vt 0.125000 0.640625
vt 0.125000 0.656250
vt 0.625000 0.640625
vt 0.677865 0.651019
vt 0.674293 0.656250
vt 0.625000 0.078125
vt 0.562500 0.093750
vt 0.562500 0.078125
vt 0.625000 0.062500
vt 0.834158 0.661956
vt 0.875000 0.656250
vt 0.836650 0.671875
vt 0.375000 0.656250
vt 0.665842 0.661956
vt 0.663350 0.671875
vt 0.750000 0.636224
vt 0.718140 0.640081
vt 0.781860 0.640081
vt 0.783099 0.640625
vt 0.625000 0.093750
vt 0.375000 0.093750
vt 0.500000 0.109375
vt 0.375000 0.109375
vt 0.500000 0.640625
vt 0.500000 0.671875
vt 0.375000 0.671875
vt 0.500000 0.062500
vt 0.375000 0.078125
vt 0.375000 0.062500
vt 0.500000 0.078125
vt 0.500000 0.687500
vt 0.500000 0.000000
vt 0.375000 0.000000
vt 0.500000 0.875000
vt 0.375000 0.875000
vt 0.375000 0.125000
vt 0.500000 0.625000
vt 0.500000 0.750000
vt 0.500000 0.125000
vt 0.375000 0.250000
vt 0.375000 1.000000
vt 0.500000 0.093750
vt 0.500000 0.656250
vt 0.500000 0.500000
vt 0.500000 0.250000
vt 0.500000 1.000000
vt 0.625000 0.875000
vt 0.625000 0.750000
vt 0.625000 0.750000
vt 0.562500 1.000000
vt 0.562500 0.875000
vt 0.562500 0.250000
vt 0.625000 0.125000
vt 0.562500 0.125000
vt 0.250000 0.687500
vt 0.375000 0.750000
vt 0.375000 0.687500
vt 0.562500 0.687500
vt 0.562500 0.750000
vt 0.562500 0.500000
vt 0.625000 0.625000
vt 0.625000 0.500000
vt 0.375000 0.500000
vt 0.250000 0.625000
vt 0.375000 0.625000
vt 0.625000 0.109375
vt 0.625000 0.250000
vt 0.625000 0.125000
vt 0.625000 0.671875
vt 0.625000 0.671875
vt 0.625000 0.670420
vt 0.250000 0.500000
vt 0.125000 0.625000
vt 0.125000 0.750000
vt 0.125000 0.687500
vt 0.625000 0.062500
vt 0.625000 0.062500
vt 0.625000 0.049600
vt 0.625000 0.640625
vt 0.625000 0.640625
vt 0.625000 0.625777
vt 0.250000 0.671875
vt 0.125000 0.671875
vt 0.562500 0.062500
vt 0.625000 0.000000
vt 0.562500 0.000000
vt 0.562500 0.671875
vt 0.625000 0.687500
vt 0.375000 0.671875
vt 0.625000 0.700400
vt 0.250000 0.656250
vt 0.375000 0.640625
vt 0.250000 0.640625
vt 0.625000 0.656250
vt 0.562500 0.640625
vt 0.562500 0.656250
vt 0.125000 0.640625
vt 0.625000 1.000000
vt 0.625000 0.875000
vt 0.562500 0.093750
vt 0.625000 0.078125
vt 0.562500 0.078125
vt 0.625000 0.656250
vt 0.625000 0.648099
vt 0.375000 0.656250
vt 0.125000 0.656250
vt 0.625000 0.109375
vt 0.625000 0.101901
vt 0.625000 0.078125
vt 0.562500 0.625000
vt 0.625000 0.124223
vt 0.562500 0.109375
vt 0.625000 0.093750
vt 0.500000 0.109375
vt 0.375000 0.093750
vt 0.375000 0.109375
vt 0.500000 0.640625
vt 0.500000 0.625000
vt 0.500000 0.671875
vt 0.500000 0.656250
vt 0.500000 0.062500
vt 0.375000 0.078125
vt 0.500000 0.078125
vt 0.500000 0.093750
vt 0.500000 0.687500
vt 0.500000 0.000000
vt 0.375000 0.062500
vt 0.500000 0.875000
vt 0.375000 0.875000
vt 0.375000 0.125000
vt 0.500000 0.125000
vt 0.500000 0.500000
vt 0.500000 0.750000
vt 0.375000 0.250000
vt 0.500000 0.250000
vt 0.375000 1.000000
vt 0.500000 1.000000
vt 0.625000 0.625000
vt 0.625000 0.500000
vt 0.625000 0.093750
vt 0.625000 0.079580
vt 0.750000 0.750000
vt 0.750000 0.722220
vt 0.625000 1.000000
vt 0.625000 0.250000
vt 0.625000 0.500000
vt 0.875000 0.671875
vt 0.837541 0.672893
vt 0.716901 0.640625
vt 0.625000 0.250000
vt 0.250000 0.750000
vt 0.625000 0.000000
vt 0.625000 0.687500
vt 0.625000 1.000000
vt 0.375000 0.000000
vn 0.0000 1.0000 0.0000
vn 0.0000 -0.0002 -1.0000
vn 0.4594 -0.7058 0.5392
vn 0.0000 -1.0000 0.0000
vn -0.9718 -0.0857 -0.2198
vn -0.4594 -0.7058 0.5392
vn 0.6442 -0.5748 0.5046
vn 0.9718 -0.0857 -0.2198
vn -0.9942 -0.1068 -0.0133
vn -0.8566 -0.3722 0.3573
vn 0.9611 -0.2088 0.1808
vn 0.9942 -0.1068 -0.0133
vn -0.9611 -0.2088 0.1808
vn -0.6442 -0.5748 0.5046
vn 0.8566 -0.3722 0.3573
vn 0.4036 -0.9000 0.1646
vn -0.2936 -0.9291 0.2249
vn -0.4427 -0.8930 0.0814
vn 0.5002 -0.8659 -0.0065
vn 0.4427 -0.8930 0.0814
vn -0.4036 -0.9000 0.1646
vn -0.5002 -0.8659 -0.0065
vn 0.5844 -0.8031 -0.1158
vn 0.0000 0.0014 -1.0000
vn 0.2936 -0.9291 0.2249
vn -0.2298 -0.9368 0.2638
vn -0.5844 -0.8031 -0.1158
vn 0.2298 -0.9368 0.2638
vn 0.5828 -0.7648 0.2748
vn -0.3730 -0.8671 0.3303
vn -0.7608 -0.6285 0.1618
vn 0.8741 -0.4855 -0.0132
vn 0.7608 -0.6285 0.1618
vn -0.5828 -0.7648 0.2748
vn -0.8741 -0.4855 -0.0132
vn 0.8914 -0.3983 -0.2163
vn 0.0000 -0.0007 -1.0000
vn 0.3730 -0.8671 0.3303
vn -0.2462 -0.9125 0.3267
vn -0.8914 -0.3983 -0.2163
vn 0.2462 -0.9125 0.3267
vn 0.0000 0.0000 1.0000
vn 0.0000 0.0002 1.0000
vn -0.4594 0.7058 -0.5392
vn 0.9718 0.0857 0.2198
vn 0.4807 0.7088 -0.5163
vn -0.6438 0.6105 -0.4614
vn -0.6814 0.0000 -0.7319
vn 0.9855 0.0000 -0.1696
vn -0.9782 0.0000 0.2078
vn 0.8128 0.0000 -0.5826
vn -0.9718 0.0857 0.2198
vn 0.9944 0.1051 0.0122
vn 0.9782 0.0000 0.2078
vn 0.9999 0.0000 0.0122
vn 0.8566 0.3722 -0.3573
vn -0.9611 0.2088 -0.1808
vn -0.9942 0.1068 0.0133
vn 0.9343 0.0000 -0.3565
vn 0.9611 0.2088 -0.1808
vn -0.9343 0.0000 -0.3565
vn -0.9999 0.0000 0.0122
vn 0.6438 0.6105 -0.4614
vn -0.8128 0.0000 -0.5826
vn -0.8566 0.3722 -0.3573
vn -0.4036 0.9000 -0.1646
vn 0.2855 0.9244 -0.2529
vn 0.4451 0.8905 -0.0946
vn -0.4997 0.8662 0.0076
vn -0.4451 0.8905 -0.0946
vn 0.3631 0.9159 -0.1712
vn 0.4997 0.8662 0.0076
vn -0.5399 0.8314 0.1310
vn 0.0000 -0.0014 1.0000
vn -0.2855 0.9244 -0.2529
vn 0.2075 0.9387 -0.2753
vn 0.5399 0.8314 0.1310
vn -0.2075 0.9387 -0.2753
vn -0.5922 0.7670 -0.2470
vn 0.3881 0.8700 -0.3040
vn 0.7608 0.6285 -0.1618
vn -0.8741 0.4855 0.0132
vn -0.7613 0.6323 -0.1432
vn 0.5922 0.7670 -0.2470
vn 0.8746 0.4847 0.0117
vn -0.9067 0.3686 0.2050
vn 0.0000 0.0007 1.0000
vn -0.3881 0.8700 -0.3040
vn 0.2699 0.9093 -0.3168
vn 0.8914 0.3983 0.2163
vn -0.2699 0.9093 -0.3168
vn 0.6814 0.0000 -0.7319
vn -0.9855 0.0000 -0.1696
vn 0.4807 -0.7088 0.5163
vn -0.9772 -0.0440 -0.2076
vn -0.4807 -0.7088 0.5163
vn 0.6438 -0.6105 0.4614
vn 0.9772 -0.0440 -0.2076
vn -0.9944 -0.1051 -0.0122
vn -0.8546 -0.4042 0.3261
vn 0.9594 -0.2288 0.1651
vn 0.9944 -0.1051 -0.0122
vn -0.9594 -0.2288 0.1651
vn -0.6438 -0.6105 0.4614
vn 0.8546 -0.4042 0.3261
vn 0.3631 -0.9159 0.1712
vn -0.2855 -0.9244 0.2529
vn -0.4451 -0.8905 0.0946
vn 0.4997 -0.8662 -0.0076
vn 0.4451 -0.8905 0.0946
vn -0.3631 -0.9159 0.1712
vn -0.4997 -0.8662 -0.0076
vn 0.5399 -0.8314 -0.1310
vn 0.2855 -0.9244 0.2529
vn -0.2075 -0.9387 0.2753
vn -0.5399 -0.8314 -0.1310
vn 0.2075 -0.9387 0.2753
vn 0.5922 -0.7670 0.2470
vn -0.3881 -0.8700 0.3040
vn -0.7613 -0.6323 0.1432
vn 0.8746 -0.4847 -0.0117
vn 0.7613 -0.6323 0.1432
vn -0.5922 -0.7670 0.2470
vn -0.8746 -0.4847 -0.0117
vn 0.9067 -0.3686 -0.2050
vn 0.3881 -0.8700 0.3040
vn -0.2699 -0.9093 0.3168
vn -0.9067 -0.3686 -0.2050
vn 0.2699 -0.9093 0.3168
vn -0.4807 0.7088 -0.5163
vn 0.9772 0.0440 0.2076
vn 0.4594 0.7058 -0.5392
vn -0.6442 0.5748 -0.5046
vn -0.9772 0.0440 0.2076
vn 0.9942 0.1068 0.0133
vn 0.8546 0.4042 -0.3261
vn -0.9594 0.2288 -0.1651
vn -0.9944 0.1051 0.0122
vn 0.9594 0.2288 -0.1651
vn 0.6442 0.5748 -0.5046
vn -0.8546 0.4042 -0.3261
vn -0.3631 0.9159 -0.1712
vn 0.2936 0.9291 -0.2249
vn 0.4427 0.8930 -0.0814
vn -0.5002 0.8659 0.0065
vn -0.4427 0.8930 -0.0814
vn 0.4036 0.9000 -0.1646
vn 0.5002 0.8659 0.0065
vn -0.5844 0.8031 0.1158
vn -0.2936 0.9291 -0.2249
vn 0.2298 0.9368 -0.2638
vn 0.5844 0.8031 0.1158
vn -0.2298 0.9368 -0.2638
vn -0.5828 0.7648 -0.2748
vn 0.3730 0.8671 -0.3303
vn 0.7613 0.6323 -0.1432
vn -0.8746 0.4847 0.0117
vn -0.7608 0.6285 -0.1618
vn 0.5828 0.7648 -0.2748
vn 0.8741 0.4855 0.0132
vn -0.8914 0.3983 0.2163
vn -0.3730 0.8671 -0.3303
vn 0.2462 0.9125 -0.3267
vn 0.9067 0.3686 0.2050
vn -0.2462 0.9125 -0.3267
usemtl Material
s off
f 125/1/1 124/2/1 9/3/1
f 21/4/2 102/5/2 111/6/2
f 17/7/3 104/8/3 109/9/3
f 37/10/4 7/11/4 23/12/4
f 116/13/5 6/14/5 106/15/5
f 104/16/6 15/17/6 108/18/6
f 4/19/4 20/20/4 25/21/4
f 62/22/7 109/9/7 123/23/7
f 1/24/1 17/25/1 28/26/1
f 1/27/1 28/26/1 15/17/1
f 4/28/4 25/21/4 14/29/4
f 37/10/4 12/30/4 30/31/4
f 106/15/2 21/4/2 111/6/2
f 6/14/1 127/32/1 128/33/1
f 129/34/1 131/35/1 53/36/1
f 55/37/4 30/31/4 52/38/4
f 9/39/8 113/40/8 102/41/8
f 121/42/9 32/43/9 116/13/9
f 55/37/4 35/44/4 37/10/4
f 33/45/1 124/2/1 134/46/1
f 62/47/1 136/48/1 137/49/1
f 64/50/4 48/51/4 70/52/4
f 122/53/10 46/54/10 117/55/10
f 67/56/4 48/51/4 44/57/4
f 68/58/1 140/59/1 139/60/1
f 58/61/11 119/62/11 120/63/11
f 33/64/12 120/63/12 113/40/12
f 141/65/1 41/66/1 132/67/1
f 42/68/4 55/37/4 48/51/4
f 117/55/13 53/36/13 121/42/13
f 44/57/4 55/37/4 52/38/4
f 46/54/1 142/69/1 130/70/1
f 15/17/1 143/71/1 144/72/1
f 14/29/4 70/52/4 67/56/4
f 108/18/14 68/58/14 122/53/14
f 20/20/4 70/52/4 25/21/4
f 145/73/1 17/25/1 135/74/1
f 41/75/15 123/23/15 119/62/15
f 44/76/16 99/77/16 67/78/16
f 20/20/17 97/79/17 64/50/17
f 42/68/18 96/80/18 60/81/18
f 85/82/19 52/83/19 30/84/19
f 94/85/20 44/76/20 52/83/20
f 97/79/21 42/68/21 64/50/21
f 60/81/22 87/86/22 35/44/22
f 76/87/23 30/84/23 12/88/23
f 7/11/24 84/89/24 23/90/24
f 99/77/25 14/91/25 67/78/25
f 4/19/26 79/92/26 20/20/26
f 35/44/27 78/93/27 7/11/27
f 82/94/28 4/95/28 14/91/28
f 84/89/24 12/96/24 23/90/24
f 119/62/29 99/77/29 92/97/29
f 79/92/30 122/53/30 97/79/30
f 90/98/31 121/42/31 96/80/31
f 113/40/32 94/85/32 85/82/32
f 120/63/33 92/97/33 94/85/33
f 97/79/34 117/55/34 90/98/34
f 96/80/35 116/13/35 87/86/35
f 102/41/36 85/82/36 76/87/36
f 78/93/37 111/6/37 84/89/37
f 123/23/38 82/94/38 99/77/38
f 74/99/39 108/18/39 79/92/39
f 87/86/40 106/15/40 78/93/40
f 109/9/41 74/100/41 82/94/41
f 111/6/37 76/101/37 84/89/37
f 22/102/42 128/103/42 5/104/42
f 91/105/43 22/102/43 101/106/43
f 93/107/44 18/108/44 100/109/44
f 36/110/1 8/111/1 34/112/1
f 5/104/45 105/113/45 95/114/45
f 93/115/46 16/116/46 2/117/46
f 3/118/1 26/119/1 19/120/1
f 56/121/47 100/109/47 18/108/47
f 18/108/48 143/122/48 145/123/48
f 49/124/49 129/125/49 130/126/49
f 3/127/1 13/128/1 26/119/1
f 11/129/1 36/110/1 27/130/1
f 95/114/43 22/102/43 5/104/43
f 31/131/50 134/132/50 124/133/50
f 61/134/51 140/135/51 138/136/51
f 27/130/1 50/137/1 47/138/1
f 103/139/52 10/140/52 91/141/52
f 114/142/53 29/143/53 49/124/53
f 50/137/1 34/112/1 54/144/1
f 5/104/54 128/103/54 127/145/54
f 29/143/55 129/125/55 49/124/55
f 45/146/1 57/147/1 63/148/1
f 43/149/56 115/150/56 107/151/56
f 59/152/1 45/146/1 63/148/1
f 10/153/42 126/154/42 22/102/42
f 110/155/57 51/156/57 112/157/57
f 112/157/58 31/131/58 103/139/58
f 43/149/59 142/158/59 139/159/59
f 39/160/1 50/137/1 54/144/1
f 49/124/60 107/151/60 114/142/60
f 40/161/1 50/137/1 45/146/1
f 56/121/61 137/162/61 136/163/61
f 31/131/62 133/164/62 134/132/62
f 13/128/1 63/148/1 26/119/1
f 98/165/63 61/134/63 16/116/63
f 19/120/1 63/148/1 57/147/1
f 18/108/64 145/123/64 135/166/64
f 118/167/65 38/168/65 110/155/65
f 89/169/66 40/170/66 59/171/66
f 19/120/67 88/172/67 71/173/67
f 39/160/68 86/174/68 80/175/68
f 75/176/69 47/177/69 83/178/69
f 83/178/70 40/170/70 81/179/70
f 88/172/71 39/160/71 80/175/71
f 54/144/72 77/180/72 86/174/72
f 66/181/73 27/182/73 75/176/73
f 73/183/74 8/111/74 24/184/74
f 89/169/75 13/185/75 72/186/75
f 3/118/76 71/173/76 65/187/76
f 34/112/77 69/188/77 77/180/77
f 72/186/78 3/189/78 65/190/78
f 73/183/74 11/191/74 66/192/74
f 110/155/79 89/169/79 118/167/79
f 71/173/80 115/150/80 98/165/80
f 114/142/81 80/175/81 86/174/81
f 83/178/82 103/139/82 75/176/82
f 112/157/83 81/179/83 110/155/83
f 88/172/84 107/151/84 115/150/84
f 86/174/85 105/113/85 114/142/85
f 91/141/86 75/176/86 103/139/86
f 69/188/87 101/106/87 95/114/87
f 118/167/88 72/186/88 100/109/88
f 65/187/89 98/165/89 93/115/89
f 95/114/90 77/180/90 69/188/90
f 100/109/91 65/190/91 93/107/91
f 66/192/87 101/106/87 73/183/87
f 2/117/92 144/193/92 143/194/92
f 38/168/93 141/195/93 132/196/93
f 124/2/1 33/45/1 9/3/1
f 9/3/1 21/197/1 125/1/1
f 21/197/1 126/198/1 125/1/1
f 21/4/2 9/199/2 102/5/2
f 17/7/94 1/200/94 104/8/94
f 37/10/4 35/44/4 7/11/4
f 116/13/95 32/43/95 6/14/95
f 104/16/96 1/201/96 15/17/96
f 62/22/97 17/7/97 109/9/97
f 37/10/4 23/12/4 12/30/4
f 106/15/2 6/14/2 21/4/2
f 128/33/1 126/198/1 21/197/1
f 6/14/1 32/43/1 127/32/1
f 128/33/1 21/197/1 6/14/1
f 131/35/1 127/32/1 32/43/1
f 32/43/1 53/36/1 131/35/1
f 53/36/1 130/70/1 129/34/1
f 55/37/4 37/10/4 30/31/4
f 9/39/98 33/64/98 113/40/98
f 121/42/99 53/36/99 32/43/99
f 55/37/4 60/81/4 35/44/4
f 132/67/1 58/202/1 133/203/1
f 58/202/1 33/45/1 134/46/1
f 133/203/1 58/202/1 134/46/1
f 137/49/1 135/74/1 62/47/1
f 62/47/1 41/66/1 136/48/1
f 64/50/4 42/68/4 48/51/4
f 122/53/100 68/58/100 46/54/100
f 67/56/4 70/52/4 48/51/4
f 139/60/1 46/54/1 68/58/1
f 68/58/1 138/204/1 140/59/1
f 58/61/101 41/75/101 119/62/101
f 33/64/102 58/61/102 120/63/102
f 141/65/1 136/48/1 41/66/1
f 41/66/1 58/202/1 132/67/1
f 42/68/4 60/81/4 55/37/4
f 117/55/103 46/54/103 53/36/103
f 44/57/4 48/51/4 55/37/4
f 130/70/1 53/36/1 46/54/1
f 46/54/1 139/60/1 142/69/1
f 138/204/1 68/58/1 15/17/1
f 15/17/1 28/26/1 143/71/1
f 144/72/1 138/204/1 15/17/1
f 14/29/4 25/21/4 70/52/4
f 108/18/104 15/17/104 68/58/104
f 20/20/4 64/50/4 70/52/4
f 145/73/1 143/71/1 17/25/1
f 143/71/1 28/26/1 17/25/1
f 17/25/1 62/47/1 135/74/1
f 41/75/105 62/22/105 123/23/105
f 44/76/106 92/97/106 99/77/106
f 20/20/107 79/92/107 97/79/107
f 42/68/108 90/98/108 96/80/108
f 85/82/109 94/85/109 52/83/109
f 94/85/110 92/97/110 44/76/110
f 97/79/111 90/98/111 42/68/111
f 60/81/112 96/80/112 87/86/112
f 76/87/113 85/82/113 30/84/113
f 7/11/24 78/93/24 84/89/24
f 99/77/114 82/94/114 14/91/114
f 4/19/115 74/99/115 79/92/115
f 35/44/116 87/86/116 78/93/116
f 82/94/117 74/100/117 4/95/117
f 84/89/24 76/101/24 12/96/24
f 119/62/118 123/23/118 99/77/118
f 79/92/119 108/18/119 122/53/119
f 90/98/120 117/55/120 121/42/120
f 113/40/121 120/63/121 94/85/121
f 120/63/122 119/62/122 92/97/122
f 97/79/123 122/53/123 117/55/123
f 96/80/124 121/42/124 116/13/124
f 102/41/125 113/40/125 85/82/125
f 78/93/37 106/15/37 111/6/37
f 123/23/126 109/9/126 82/94/126
f 74/99/127 104/16/127 108/18/127
f 87/86/128 116/13/128 106/15/128
f 109/9/129 104/8/129 74/100/129
f 111/6/37 102/5/37 76/101/37
f 22/102/42 126/154/42 128/103/42
f 91/105/43 10/153/43 22/102/43
f 93/107/130 2/205/130 18/108/130
f 36/110/1 24/206/1 8/111/1
f 5/104/131 29/143/131 105/113/131
f 93/115/132 98/165/132 16/116/132
f 56/121/133 118/167/133 100/109/133
f 18/108/48 2/205/48 143/122/48
f 142/158/49 43/149/49 130/126/49
f 43/149/49 49/124/49 130/126/49
f 11/129/1 24/206/1 36/110/1
f 95/114/43 101/106/43 22/102/43
f 124/133/50 125/207/50 10/140/50
f 10/140/50 31/131/50 124/133/50
f 138/136/51 144/193/51 16/116/51
f 16/116/51 61/134/51 138/136/51
f 27/130/1 36/110/1 50/137/1
f 103/139/134 31/131/134 10/140/134
f 114/142/135 105/113/135 29/143/135
f 50/137/1 36/110/1 34/112/1
f 127/145/54 131/208/54 29/143/54
f 29/143/54 5/104/54 127/145/54
f 29/143/55 131/208/55 129/125/55
f 45/146/1 39/160/1 57/147/1
f 43/149/136 61/134/136 115/150/136
f 59/152/1 40/161/1 45/146/1
f 10/153/42 125/209/42 126/154/42
f 110/155/137 38/168/137 51/156/137
f 112/157/138 51/156/138 31/131/138
f 139/159/59 140/135/59 61/134/59
f 61/134/59 43/149/59 139/159/59
f 39/160/1 45/146/1 50/137/1
f 49/124/139 43/149/139 107/151/139
f 40/161/1 47/138/1 50/137/1
f 136/163/61 141/195/61 38/168/61
f 38/168/61 56/121/61 136/163/61
f 31/131/62 51/156/62 133/164/62
f 13/128/1 59/152/1 63/148/1
f 98/165/140 115/150/140 61/134/140
f 19/120/1 26/119/1 63/148/1
f 135/166/64 137/162/64 56/121/64
f 56/121/64 18/108/64 135/166/64
f 118/167/141 56/121/141 38/168/141
f 89/169/142 81/179/142 40/170/142
f 19/120/143 57/147/143 88/172/143
f 39/160/144 54/144/144 86/174/144
f 75/176/145 27/182/145 47/177/145
f 83/178/146 47/177/146 40/170/146
f 88/172/147 57/147/147 39/160/147
f 54/144/148 34/112/148 77/180/148
f 66/181/149 11/210/149 27/182/149
f 73/183/74 69/188/74 8/111/74
f 89/169/150 59/171/150 13/185/150
f 3/118/151 19/120/151 71/173/151
f 34/112/152 8/111/152 69/188/152
f 72/186/153 13/185/153 3/189/153
f 73/183/74 24/184/74 11/191/74
f 110/155/154 81/179/154 89/169/154
f 71/173/155 88/172/155 115/150/155
f 114/142/156 107/151/156 80/175/156
f 83/178/157 112/157/157 103/139/157
f 112/157/158 83/178/158 81/179/158
f 88/172/159 80/175/159 107/151/159
f 86/174/160 77/180/160 105/113/160
f 91/141/161 66/181/161 75/176/161
f 69/188/87 73/183/87 101/106/87
f 118/167/162 89/169/162 72/186/162
f 65/187/163 71/173/163 98/165/163
f 95/114/164 105/113/164 77/180/164
f 100/109/165 72/186/165 65/190/165
f 66/192/87 91/105/87 101/106/87
f 2/117/92 16/116/92 144/193/92
f 132/196/93 133/164/93 51/156/93
f 51/156/93 38/168/93 132/196/93
